<?xml version="1.0" encoding="UTF-8"?>
<!-- Generator: Adobe Illustrator 23.0.2, SVG Export Plug-In . SVG Version: 6.00 Build 0)  -->
<svg version="1.1" id="Capa_1" xmlns="http://www.w3.org/2000/svg" xmlns:xlink="http://www.w3.org/1999/xlink" x="0px" y="0px" viewBox="0 0 193.6 71.8" style="enable-background:new 0 0 193.6 71.8;" xml:space="preserve">
<style type="text/css">
	.st0{fill:#509FDA;}
	.st1{fill:url(#SVGID_1_);}
	.st2{fill:url(#SVGID_2_);}
	.st3{fill:url(#SVGID_3_);}
	.st4{fill:url(#SVGID_4_);}
</style>
<title>Recurso 3</title>
<g>
	<g id="Capa_1-2">
		<path class="st0" d="M35.9,71.8h-1.1l7.3-20.2h10.1c1.9-0.1,3.6-1.3,4.3-3l8-21.9c1.3-3.6-0.8-6.5-4.6-6.5H46L34.2,52.5l0,0    l-6.7,18.3C8.3,66.2-3.6,46.9,1,27.6C4,14.9,13.6,4.8,26.2,1.3l-6.9,18.9l0,0L7.9,51.6h7.6l9.7-26.7h5.7l-9.7,26.7h7.6l9.1-24.9    c1.3-3.6-0.7-6.5-4.5-6.5h-6.4L34.3,0c0.5,0,1.1,0,1.6,0c19.8,0.3,35.6,16.7,35.3,36.5C70.9,55.9,55.2,71.5,35.9,71.8z M57.6,24.9    h-5.7l-8,22h5.7L57.6,24.9z"/>
		
			<linearGradient id="SVGID_1_" gradientUnits="userSpaceOnUse" x1="127.7343" y1="20.41" x2="127.7343" y2="51.73" gradientTransform="matrix(1 0 0 -1 0 71.89)">
			<stop offset="0" style="stop-color:#000000"/>
			<stop offset="1" style="stop-color:#545454"/>
		</linearGradient>
		<path class="st1" d="M122.4,43.6l5.7-15.6c0.6-1.5,2-2.5,3.6-2.6h7.8l1.9-5.2h-10.5c-4.3,0-9.1,3.5-10.7,7.8l-5.7,15.7l0,0    c-1.6,4.3,0.7,7.8,5,7.8H130l1.9-5.2h-7.8c-1,0.1-1.8-0.7-1.9-1.7C122.2,44.2,122.2,43.9,122.4,43.6z"/>
		
			<linearGradient id="SVGID_2_" gradientUnits="userSpaceOnUse" x1="176.195" y1="20.44" x2="176.195" y2="51.78" gradientTransform="matrix(1 0 0 -1 0 71.89)">
			<stop offset="0" style="stop-color:#000000"/>
			<stop offset="1" style="stop-color:#545454"/>
		</linearGradient>
		<path class="st2" d="M175.1,28c0.6-1.5,2-2.5,3.6-2.6h13.1l1.9-5.2h-15.7c-4.3,0-9.1,3.5-10.7,7.8l-1,2.6l0,0    c-1.6,4.3,0.7,7.8,5,7.8l0,0h0.5h4.7c1-0.1,1.8,0.7,1.9,1.6c0,0.3,0,0.6-0.2,0.9l-0.9,2.6c-0.6,1.5-2,2.5-3.6,2.6h-13l-1.9,5.2    h15.6c4.3,0,9.1-3.5,10.7-7.8L186,41l0,0c1.6-4.3-0.7-7.8-5-7.8h-5.2c-1,0.1-1.8-0.7-1.9-1.7c0-0.3,0.1-0.7,0.2-0.9L175.1,28z"/>
		
			<linearGradient id="SVGID_3_" gradientUnits="userSpaceOnUse" x1="103.09" y1="20.44" x2="103.09" y2="51.78" gradientTransform="matrix(1 0 0 -1 0 71.89)">
			<stop offset="0" style="stop-color:#000000"/>
			<stop offset="1" style="stop-color:#545454"/>
		</linearGradient>
		<path class="st3" d="M107.9,33.2h-5.2c-1,0.1-1.8-0.6-1.9-1.6c0-0.3,0-0.7,0.2-1l1-2.6c0.6-1.5,2-2.5,3.6-2.6h13.1l1.9-5.2h-15.7    c-4.3,0-9.1,3.5-10.7,7.8l-1,2.6l0,0c-1.6,4.3,0.7,7.8,5,7.8l0,0h0.5h4.7c1-0.1,1.8,0.7,1.9,1.6c0,0.3,0,0.6-0.2,0.9l-0.9,2.6    c-0.6,1.5-2,2.5-3.6,2.6h-13l-1.9,5.2h15.7c4.3,0,9.1-3.5,10.7-7.8l1-2.6l0,0C114.5,36.7,112.3,33.2,107.9,33.2z"/>
		
			<linearGradient id="SVGID_4_" gradientUnits="userSpaceOnUse" x1="148.8788" y1="20.41" x2="148.8788" y2="51.75" gradientTransform="matrix(1 0 0 -1 0 71.89)">
			<stop offset="0" style="stop-color:#000000"/>
			<stop offset="1" style="stop-color:#545454"/>
		</linearGradient>
		<path class="st4" d="M164.7,28c1.5-4-0.4-7.4-4.2-7.8l0,0H144l-1.9,5.2h13.1c1-0.1,1.8,0.7,1.9,1.7c0,0.3,0,0.6-0.2,0.9l-5.7,15.7    c-0.6,1.5-2,2.5-3.6,2.6h-5.2l6.7-18.4h-7.8l-8.6,23.6h15.7c4.3,0,9.1-3.5,10.7-7.8L164.7,28z"/>
	</g>
</g>
</svg>