<svg id="Capa_1" enable-background="new 0 0 512 512" height="512" viewBox="0 0 512 512" width="512" xmlns="http://www.w3.org/2000/svg"><g><g><path d="m181.411 173.847h288.089c13.807 0 25 11.193 25 25v217.39c0 13.807-11.193 25-25 25h-59.553c-5.523 0-10 4.477-10 10v47.421c0 4.454-5.386 6.685-8.535 3.536l-58.027-58.027c-1.875-1.875-4.419-2.929-7.071-2.929h-144.903c-13.807 0-25-11.193-25-25v-217.39c0-13.808 11.193-25.001 25-25.001z" fill="#95c7f8"/><g><path d="m479.5 173.847h-30c13.807 0 25 11.193 25 25v217.39c0 13.807-11.193 25-25 25h30c13.807 0 25-11.193 25-25v-217.39c0-13.807-11.193-25-25-25z" fill="#75b5f8"/></g><path d="m320.589 8.332h-288.089c-13.807 0-25 11.193-25 25v217.39c0 13.807 11.193 25 25 25h69.553c5.523 0 10 4.477 10 10v47.421c0 4.454 5.386 6.685 8.535 3.536l58.027-58.027c1.875-1.875 4.419-2.929 7.071-2.929h134.902c13.807 0 25-11.193 25-25v-217.391c.001-13.807-11.192-25-24.999-25z" fill="#ffe187"/><g><path d="m330.589 8.332h-30c13.807 0 25 11.193 25 25v217.39c0 13.807-11.193 25-25 25h30c13.807 0 25-11.193 25-25v-217.39c0-13.807-11.193-25-25-25z" fill="#ffd26f"/></g><path d="m46.753 432.261c0 9.476 6.296 17.482 14.933 20.063 1.902.568 3.917-.127 6.003-.127 11.563 0 19.936-8.374 19.936-19.936 0-11.563-8.373-19.936-19.936-19.936-2.086 0-4.101-.695-6.003-.127-8.637 2.58-14.933 10.586-14.933 20.063z" fill="#ade4a4"/><path d="m67.689 411.324c-2.087 0-4.098.315-6 .883 8.637 2.581 14.936 10.577 14.936 20.053s-6.3 17.472-14.936 20.053c1.902.568 3.913.883 6 .883 11.563 0 20.936-9.374 20.936-20.936.001-11.562-9.373-20.936-20.936-20.936z" fill="#8bd5a7"/><path d="m423.374 79.74c0 9.476 6.296 17.482 14.933 20.063 1.902.568 3.917-.127 6.003-.127 11.563 0 19.936-8.374 19.936-19.936s-8.374-19.936-19.936-19.936c-2.086 0-4.101-.695-6.003-.127-8.637 2.58-14.933 10.586-14.933 20.063z" fill="#ade4a4"/><path d="m444.31 58.803c-2.087 0-4.098.315-6 .883 8.637 2.581 14.936 10.577 14.936 20.053s-6.299 17.472-14.936 20.053c1.902.568 3.913.883 6 .883 11.563 0 20.936-9.374 20.936-20.936s-9.373-20.936-20.936-20.936z" fill="#8bd5a7"/></g><g><path d="m433.259 300.044h-205.607c-4.142 0-7.5 3.358-7.5 7.5s3.358 7.5 7.5 7.5h205.607c4.142 0 7.5-3.358 7.5-7.5s-3.358-7.5-7.5-7.5z"/><path d="m433.259 361.932h-205.607c-4.142 0-7.5 3.358-7.5 7.5s3.358 7.5 7.5 7.5h205.607c4.142 0 7.5-3.358 7.5-7.5s-3.358-7.5-7.5-7.5z"/><path d="m96.435 142.029c0-4.142-3.358-7.5-7.5-7.5s-7.5 3.358-7.5 7.5c0 4.142 3.358 7.5 7.5 7.5s7.5-3.358 7.5-7.5z"/><path d="m189.044 142.029c0-4.142-3.358-7.5-7.5-7.5s-7.5 3.358-7.5 7.5c0 4.142 3.358 7.5 7.5 7.5 4.143 0 7.5-3.358 7.5-7.5z"/><path d="m281.654 142.029c0-4.142-3.358-7.5-7.5-7.5s-7.5 3.358-7.5 7.5c0 4.142 3.358 7.5 7.5 7.5s7.5-3.358 7.5-7.5z"/><path d="m67.689 403.826c-15.68 0-28.436 12.756-28.436 28.437 0 15.68 12.756 28.436 28.436 28.436s28.437-12.756 28.437-28.436-12.756-28.437-28.437-28.437zm0 41.873c-7.409 0-13.436-6.027-13.436-13.436s6.027-13.437 13.436-13.437 13.437 6.028 13.437 13.437c0 7.408-6.028 13.436-13.437 13.436z"/><path d="m444.31 108.178c15.68 0 28.436-12.756 28.436-28.436s-12.756-28.436-28.436-28.436-28.436 12.756-28.436 28.436c0 15.679 12.756 28.436 28.436 28.436zm0-41.873c7.409 0 13.436 6.028 13.436 13.437s-6.027 13.436-13.436 13.436-13.436-6.027-13.436-13.436 6.028-13.437 13.436-13.437z"/><path d="m230.176 433.739h-48.765c-9.649 0-17.5-7.851-17.5-17.5v-112.177c0-.031-.004-.062-.005-.093l20.012-20.013c.472-.472 1.1-.732 1.768-.732h144.902c17.101 0 31.15-13.28 32.399-30.068h70.271c4.142 0 7.5-3.358 7.5-7.5s-3.358-7.5-7.5-7.5h-70.17v-56.807h31.131c4.142 0 7.5-3.358 7.5-7.5s-3.358-7.5-7.5-7.5h-31.131v-133.015c0-17.92-14.58-32.5-32.5-32.5h-298.088c-17.92 0-32.5 14.58-32.5 32.5v36.737c0 4.142 3.358 7.5 7.5 7.5s7.5-3.358 7.5-7.5v-36.737c0-9.649 7.851-17.5 17.5-17.5h298.089c9.649 0 17.5 7.851 17.5 17.5v217.39c0 9.649-7.851 17.5-17.5 17.5h-144.903c-4.674 0-9.069 1.82-12.374 5.125l-53.76 53.76v-41.385c0-9.649-7.851-17.5-17.5-17.5h-69.552c-9.649 0-17.5-7.851-17.5-17.5v-147.967c0-4.142-3.358-7.5-7.5-7.5s-7.5 3.358-7.5 7.5v147.967c0 17.92 14.58 32.5 32.5 32.5h69.553c1.378 0 2.5 1.122 2.5 2.5v47.421c0 5.074 3.029 9.607 7.716 11.548 1.556.645 3.184.958 4.796.958 3.246-.001 6.429-1.271 8.826-3.668l23.02-23.02v97.275c0 17.92 14.58 32.5 32.5 32.5h48.765c4.142 0 7.5-3.358 7.5-7.5 0-4.141-3.358-7.499-7.5-7.499z"/><path d="m479.5 166.349h-52.593c-4.142 0-7.5 3.358-7.5 7.5s3.358 7.5 7.5 7.5h52.593c9.649 0 17.5 7.851 17.5 17.5v217.39c0 9.649-7.851 17.5-17.5 17.5h-69.553c-9.649 0-17.5 7.851-17.5 17.5v41.385l-53.759-53.759c-3.305-3.306-7.7-5.126-12.375-5.126h-63.451c-4.142 0-7.5 3.358-7.5 7.5s3.358 7.5 7.5 7.5h63.451c.668 0 1.295.26 1.768.732l58.027 58.027c2.397 2.398 5.58 3.668 8.826 3.668 1.612 0 3.24-.313 4.796-.957 4.688-1.941 7.717-6.475 7.717-11.549v-47.421c0-1.378 1.121-2.5 2.5-2.5h69.553c17.92 0 32.5-14.58 32.5-32.5v-217.39c0-17.92-14.58-32.5-32.5-32.5z"/></g></g></svg>