<svg id="Layer_35" enable-background="new 0 0 62 62" height="512" viewBox="0 0 62 62" width="512" xmlns="http://www.w3.org/2000/svg"><g><g><g><path d="m29 45v4h-16-8v-4z" fill="#b27946"/></g><g><path d="m7.5 61h-6.5v-18h4v2 4 9.5c0 1.38 1.12 2.5 2.5 2.5z" fill="#d3a06c"/></g><g><path d="m53 12c0 .79-.18 1.53-.5 2.19-.65-.12-1.32-.19-2.01-.19h-4.66c-1.81 0-3.55.48-5.07 1.34-.8.45-1.54 1.01-2.19 1.66h-10l-.18-.34c-.61-1.16-1.65-2.02-2.86-2.41v-.01c-.34-.67-.53-1.43-.53-2.24 0-.36.04-.7.11-1.04.48-2.26 2.49-3.96 4.89-3.96.09 0 .17.02.26.03.88-3.47 4-6.03 7.74-6.03 3.91 0 7.15 2.8 7.85 6.5.66-.31 1.38-.5 2.15-.5 2.76 0 5 2.24 5 5z" fill="#e6e9ed"/></g><g><path d="m21.58 14.64c-.05.03-.09.05-.14.08-.76.46-1.4 1.12-1.83 1.94l-3.8 7.29c-.27.03-.54.05-.81.05-3.87 0-7-3.13-7-7s3.13-7 7-7c3.04 0 5.61 1.94 6.58 4.64z" fill="#fcd770"/></g><g><path d="m25.53 14.24v.01c-.49-.16-1-.25-1.53-.25-.86 0-1.69.23-2.42.64-.97-2.7-3.54-4.64-6.58-4.64-3.87 0-7 3.13-7 7s3.13 7 7 7c.27 0 .54-.02.81-.05l-2.01 3.86c-.81-.57-1.78-.87-2.77-.87-.68 0-1.37.15-2.03.45-.1-1.17-.62-2.21-1.4-2.99s-1.82-1.3-2.99-1.4c.98-2.13.31-4.65-1.6-6 1.32-.93 2.05-2.43 2.05-3.96 0-.69-.15-1.38-.45-2.04 1.17-.1 2.21-.62 2.99-1.4s1.3-1.82 1.4-2.99c2.13.98 4.65.31 6-1.6.93 1.32 2.43 2.05 3.96 2.05.69 0 1.38-.15 2.04-.45.2 2.23 1.91 4.03 4.11 4.35-.07.34-.11.68-.11 1.04 0 .81.19 1.57.53 2.24z" fill="#ffc729"/></g><g><path d="m28.57 17 10.43 20h-6v-2h-2c-1.1 0-2 .9-2 2h-20l4.8-9.19 2.01-3.86 3.8-7.29c.43-.82 1.07-1.48 1.83-1.94.05-.03.09-.05.14-.08.73-.41 1.56-.64 2.42-.64.53 0 1.04.09 1.53.25 1.21.39 2.25 1.25 2.86 2.41z" fill="#b4dd7f"/></g><g><path d="m61 24.51c0 1.99-.56 3.89-1.57 5.52s-2.46 2.98-4.24 3.87l-2.19 1.1v-5c.55 0 1.05-.22 1.41-.59.37-.36.59-.86.59-1.41s-.22-1.05-.59-1.41c-.36-.37-.86-.59-1.41-.59v-2c0-1.1-.9-2-2-2h-5-1-5l1-2-4-1c.44-.74.97-1.41 1.57-2 .65-.65 1.39-1.21 2.19-1.66 1.52-.86 3.26-1.34 5.07-1.34h4.66c.69 0 1.36.07 2.01.19 4.85.94 8.5 5.2 8.5 10.32z" fill="#656d78"/></g><g><path d="m45 55h10c0 3.31-2.69 6-6 6h-9-4c-.83 0-1.58-.34-2.12-.88s-.88-1.29-.88-2.12c0-1.66 1.34-3 3-3h2z" fill="#d3a06c"/></g><g><path d="m55 47v8h-10c1.1 0 2-.9 2-2 0-.55-.22-1.05-.59-1.41-.36-.37-.86-.59-1.41-.59h6c2.21 0 4-1.79 4-4z" fill="#fcd770"/></g><g><path d="m50 37h2c-.83 0-1.58.34-2.12.88s-.88 1.29-.88 2.12v3 2l-6 1.5v-2.5c0-3.87 3.13-7 7-7z" fill="#fcd770"/></g><g><path d="m55 40v3h-6v-3c0-.83.34-1.58.88-2.12s1.29-.88 2.12-.88c.35 0 .69.06 1 .18 1.17.4 2 1.51 2 2.82z" fill="#fcd770"/></g><g><path d="m49 45v-2h6v4c0 2.21-1.79 4-4 4h-6-5-2.9c-.05 0-.1-.05-.1-.1v-.9c0-1.66 1.34-3 3-3h1l2-.5z" fill="#f0d0b4"/></g><g><path d="m54.41 26.59c.37.36.59.86.59 1.41s-.22 1.05-.59 1.41c-.36.37-.86.59-1.41.59v5 2.18c-.31-.12-.65-.18-1-.18h-2-1v-4h-2c-2.21 0-4-1.79-4-4v-5c0-1.1.9-2 2-2h1 5c1.1 0 2 .9 2 2v2c.55 0 1.05.22 1.41.59z" fill="#f0d0b4"/></g><g><path d="m46.41 51.59c.37.36.59.86.59 1.41 0 1.1-.9 2-2 2h-7-2-5c-1.1 0-2-.9-2-2v-2h4 4.1 2.9 5c.55 0 1.05.22 1.41.59z" fill="#aab2bd"/></g><g><path d="m33 37v14h-4v-2-4-8c0-1.1.9-2 2-2h2z" fill="#ccd1d9"/></g></g><path d="m55.639 34.799c3.924-1.963 6.361-5.906 6.361-10.293 0-5.193-3.459-9.588-8.193-11.015.124-.483.193-.98.193-1.491 0-3.309-2.691-6-6-6-.49 0-.976.063-1.454.187-1.195-3.645-4.623-6.187-8.546-6.187-3.849 0-7.232 2.438-8.484 6.02-2.303.185-4.242 1.675-5.076 3.729-1.342-.518-2.308-1.746-2.442-3.231-.029-.324-.218-.612-.499-.775-.283-.163-.629-.177-.924-.04-1.682.779-3.684.244-4.743-1.257-.183-.274-.491-.438-.821-.442-.353-.021-.642.157-.832.426-1.07 1.518-3.07 2.052-4.787 1.259-.294-.127-.632-.105-.907.059-.275.165-.455.45-.483.77-.166 1.852-1.632 3.317-3.485 3.484-.324.029-.612.218-.774.499-.163.282-.176.628-.04.924.779 1.684.243 3.683-1.303 4.775-.256.192-.401.497-.397.816.005.32.165.62.426.804 1.517 1.07 2.052 3.07 1.259 4.787-.126.294-.104.631.06.907.165.275.45.455.77.483 1.852.166 3.318 1.632 3.484 3.485.029.324.218.611.499.774.283.162.629.177.923.04.963-.444 2.061-.458 3.028-.077l-4.059 7.781h-8.393v2h28v6h-22v-2h-6v20h7.5 1 9 1 5 1 11.5 4 9c3.86 0 7-3.141 7-7v-15c0-1.474-.81-2.75-2-3.444v-.938zm4.361-10.293c0 3.624-2.014 6.882-5.255 8.503l-.745.373v-2.553c1.164-.413 2-1.525 2-2.829s-.836-2.416-2-2.829v-1.171c0-1.654-1.346-3-3-3h-5-1-3.382l.834-1.668-3.794-.948c1.751-2.114 4.391-3.384 7.173-3.384h4.663c5.241 0 9.506 4.265 9.506 9.506zm-13 9.494h1v2h-8.393l-9.392-18h6.264c-.11.163-.235.315-.337.485l-.694 1.157 4.1 1.025-1.166 2.333h3.802c-.112.314-.184.648-.184 1v5c0 2.757 2.243 5 5 5zm7 8h-4v-2c0-1.103.897-2 2-2s2 .897 2 2zm-6.184 12c.112-.314.184-.648.184-1s-.072-.686-.184-1h3.184c1.13 0 2.162-.391 3-1.026v3.026zm-1.816-1c0 .552-.449 1-1 1h-7-2-5c-.551 0-1-.448-1-1v-1h7.104 2.896 5c.551 0 1 .448 1 1zm-14-3h-2v-13c0-.552.449-1 1-1h1zm4 0h-2v-12h10.726c-1.667 1.467-2.726 3.61-2.726 6v1.719l-1.123.281h-.877c-2.206 0-4 1.794-4 4zm8-6c0-2.768 1.887-5.098 4.441-5.787-.273.54-.441 1.141-.441 1.787v4.219l-4 1zm-14.004-35.997h.006c.067.009.134.018.204.021l.818.042.202-.794c.788-3.104 3.574-5.272 6.774-5.272 3.357 0 6.247 2.392 6.872 5.688l.242 1.276 1.172-.56c.559-.268 1.136-.404 1.714-.404 2.206 0 4 1.794 4 4 0 .374-.067.734-.166 1.085-.441-.052-.886-.085-1.34-.085h-4.663c-2.854 0-5.576 1.112-7.637 3h-9.04c-.66-1.155-1.663-2.036-2.849-2.533-.186-.468-.305-.955-.305-1.467 0-2.204 1.791-3.997 3.996-3.997zm-20.241 18.088c-.569-1.833-2.008-3.274-3.84-3.844.42-1.864-.104-3.826-1.408-5.244 1.298-1.404 1.826-3.367 1.403-5.249 1.833-.569 3.273-2.008 3.843-3.839 1.864.419 3.827-.104 5.244-1.408 1.404 1.297 3.366 1.825 5.249 1.403.558 1.805 1.962 3.226 3.768 3.812-.005.093-.014.184-.014.278 0 .342.038.676.094 1.006-.032 0-.062-.006-.094-.006-.665 0-1.306.121-1.914.328-1.36-2.622-4.083-4.328-7.086-4.328-4.411 0-8 3.589-8 8 0 4.126 3.141 7.532 7.156 7.955l-.775 1.485c-1.136-.495-2.407-.621-3.626-.349zm5.427-3.102c-.061.002-.12.011-.182.011-3.309 0-6-2.691-6-6s2.691-6 6-6c2.261 0 4.309 1.291 5.325 3.273-.651.512-1.201 1.16-1.6 1.924zm5.317-5.867c.683-1.309 2.024-2.122 3.501-2.122s2.818.813 3.501 2.122l9.849 18.878h-3.35v-2h-3c-1.302 0-2.402.839-2.816 2h-17.534zm7.501 28.878v2h-22v-2zm-2 4-2.8 2.101c-.919.689-1.658 1.571-2.2 2.56-.542-.989-1.281-1.871-2.2-2.56l-2.8-2.101zm-16 0-2.8 2.101c-.443.332-.84.714-1.2 1.125v-3.226zm-8-6h2v14.5c0 .539.133 1.044.351 1.5h-2.351zm15.5 16c-.827 0-1.5-.673-1.5-1.5s.673-1.5 1.5-1.5h.5v-2h-.5c-1.93 0-3.5 1.57-3.5 3.5 0 .539.133 1.044.351 1.5h-2.702c.218-.456.351-.961.351-1.5 0-1.93-1.57-3.5-3.5-3.5h-.5v2h.5c.827 0 1.5.673 1.5 1.5s-.673 1.5-1.5 1.5h-1c-.827 0-1.5-.673-1.5-1.5 0-1.879.897-3.673 2.4-4.8l4.6-3.45 4.6 3.45c1.503 1.127 2.4 2.921 2.4 4.8 0 .827-.673 1.5-1.5 1.5zm6 0c-.827 0-1.5-.673-1.5-1.5 0-1.879.897-3.673 2.4-4.8l3.6-2.7v2c0 1.654 1.346 3 3 3h1.556c-.344.591-.556 1.268-.556 2s.212 1.409.556 2h-4.907c.218-.456.351-.961.351-1.5 0-1.93-1.57-3.5-3.5-3.5h-.5v2h.5c.827 0 1.5.673 1.5 1.5s-.673 1.5-1.5 1.5zm25.5 0h-9-4c-1.103 0-2-.897-2-2s.897-2 2-2h2 15.899c-.465 2.279-2.485 4-4.899 4zm2-10h-11-2c0-1.103.897-2 2-2h1l7.69-1.896 1.603 1.603 1.414-1.414-1.707-1.707v-.586h4v3c0 1.654-1.346 3-3 3zm-1-14v-4h-3c-1.654 0-3-1.346-3-3v-5c0-.551.449-1 1-1h1 5c.551 0 1 .449 1 1v3h1c.551 0 1 .449 1 1s-.449 1-1 1h-1v7z"/></g></svg>