<svg id="Layer_35" enable-background="new 0 0 62 62" height="512" viewBox="0 0 62 62" width="512" xmlns="http://www.w3.org/2000/svg"><g><g><g><path d="m14 35 1 4h-12l1-4z" fill="#dfb28b"/></g><g><path d="m15 43-1.72 10.33c-.16.96-1 1.67-1.97 1.67h-4.62c-.97 0-1.81-.71-1.97-1.67l-1.72-10.33z" fill="#dfb28b"/></g><g><path d="m17 40v2c0 .55-.45 1-1 1h-1-12-1c-.55 0-1-.45-1-1v-2c0-.55.45-1 1-1h1 12 1c.55 0 1 .45 1 1z" fill="#cf9e76"/></g><g><circle cx="14" cy="9" fill="#69d6f4" r="8"/></g><g><path d="m51 14c-1.32-.66-2.77-1-4.24-1h-1.76c-.77 0-1.5-.22-2.11-.6.07.4.11.8.11 1.21v.39c-1.32-.66-2.77-1-4.24-1h-1.76c-1.39 0-2.61-.7-3.32-1.78-1.56.55-2.68 2.04-2.68 3.78h-3c-.4 0-.79.08-1.14.23v-.01c-.56-1.27-.86-2.66-.86-4.09 0-2.79 1.14-5.33 2.97-7.16s4.37-2.97 7.16-2.97h9.74c5.59 0 10.13 4.54 10.13 10.13 0 1.43-.3 2.82-.86 4.09v.01c-.35-.15-.74-.23-1.14-.23h-3z" fill="#656d78"/></g><g><path d="m33 51.02v2c0 1.02.75 1.85 1.73 1.98h-1.73c-.03 0-.07 0-.1 0-3.26-.06-5.9-2.72-5.9-6v-3.83c0-5.42 3.62-10.16 8.84-11.58l2.16-.59.11.21c.54 1.1 1.66 1.79 2.89 1.79s2.35-.69 2.89-1.79l.11-.21 2.16.59c5.22 1.42 8.84 6.16 8.84 11.58v3.83c0 3.31-2.69 6-6 6h-1.73c.98-.13 1.73-.96 1.73-1.98v-2-2.02-8c0-1.1-.9-2-2-2h-12c-1.1 0-2 .9-2 2v8z" fill="#b4dd7f"/></g><g><path d="m51 20.41v-5.41h3c.4 0 .79.08 1.14.23 1.09.44 1.86 1.51 1.86 2.77 0 .83-.34 1.58-.88 2.12s-1.29.88-2.12.88h-3-.02c.01-.19.02-.39.02-.59z" fill="#f0d0b4"/></g><g><path d="m51 15v5.41c0 .2-.01.4-.02.59-.22 3.76-2.54 7.1-6.04 8.6l-.33.14c-.37.16-.61.52-.61.92v2.34l-.11.21c-.54 1.1-1.66 1.79-2.89 1.79s-2.35-.69-2.89-1.79l-.11-.21v-2.34c0-.4-.24-.76-.61-.92l-.33-.14c-3.5-1.5-5.82-4.84-6.04-8.6-.01-.19-.02-.39-.02-.59v-5.41c0-1.74 1.12-3.23 2.68-3.78.71 1.08 1.93 1.78 3.32 1.78h1.76c1.47 0 2.92.34 4.24 1v-.39c0-.41-.04-.81-.11-1.21.61.38 1.34.6 2.11.6h1.76c1.47 0 2.92.34 4.24 1z" fill="#f0d0b4"/></g><g><path d="m31 20.41c0 .2.01.4.02.59h-.02-3c-.83 0-1.58-.34-2.12-.88s-.88-1.29-.88-2.12c0-1.26.77-2.33 1.86-2.77.35-.15.74-.23 1.14-.23h3z" fill="#f0d0b4"/></g><g><path d="m61 55v6h-60v-6h5.69 4.62 21.59.1 1.73c.09.01.18.02.27.02h12c.09 0 .18-.01.27-.02h1.73z" fill="#d3a06c"/></g><g><path d="m49 51.02v2c0 1.02-.75 1.85-1.73 1.98h-12.54c-.98-.13-1.73-.96-1.73-1.98v-2z" fill="#aab2bd"/></g><g><path d="m49 51.02h-16v-2.02-8c0-1.1.9-2 2-2h12c1.1 0 2 .9 2 2v8z" fill="#ccd1d9"/></g><g><circle cx="41" cy="45" fill="#69d6f4" r="2"/></g></g><g><path d="m53.889 54c1.301-1.272 2.111-3.042 2.111-5v-3.834c0-5.847-3.939-11.004-9.579-12.542l-1.421-.388v-1.576l.333-.143c3.554-1.523 6.004-4.767 6.55-8.517h2.117c2.206 0 4-1.794 4-4 0-1.316-.647-2.476-1.631-3.206.412-1.176.631-2.403.631-3.663 0-6.138-4.993-11.131-11.131-11.131h-9.738c-6.138 0-11.131 4.993-11.131 11.131 0 1.26.219 2.487.631 3.664-.984.729-1.631 1.889-1.631 3.205 0 2.206 1.794 4 4 4h2.117c.546 3.749 2.996 6.993 6.55 8.517l.333.142v1.577l-1.42.388c-5.641 1.538-9.58 6.695-9.58 12.542v3.834c0 1.958.81 3.728 2.111 5h-13.978c.057-.163.102-.331.131-.507l1.583-9.493h.153c1.103 0 2-.897 2-2v-2c0-1.103-.897-2-2-2h-.22l-.999-4h-11.562l-.999 4h-.22c-1.103 0-2 .897-2 2v2c0 1.103.897 2 2 2h.153l1.582 9.493c.029.176.075.344.132.507h-3.867v8h62v-8zm-19.01 0c-.492-.062-.879-.467-.879-.976v-1h14v1c0 .509-.387.913-.879.976zm13.121-3.976h-14v-9.024c0-.552.448-1 1-1h12c.552 0 1 .448 1 1zm6-30.024h-2v-4h2c1.103 0 2 .897 2 2s-.897 2-2 2zm-28-2c0-1.103.897-2 2-2h2v4h-2c-1.103 0-2-.897-2-2zm4.114-4h-2.114c-.176 0-.345.03-.515.052-.318-.94-.485-1.918-.485-2.921 0-5.035 4.096-9.131 9.131-9.131h9.738c5.035 0 9.131 4.096 9.131 9.131 0 1.003-.167 1.982-.485 2.921-.17-.022-.339-.052-.515-.052h-2v-.395c0-2.593-1.288-4.999-3.445-6.438l-1.109 1.664c1.281.854 2.148 2.169 2.443 3.646-1.01-.313-2.069-.477-3.125-.477h-1.764c-.427 0-.846-.091-1.23-.264-.459-1.849-1.59-3.484-3.216-4.568l-1.109 1.664c1.281.854 2.148 2.169 2.443 3.646-1.009-.314-2.068-.478-3.124-.478h-1.764c-1.654 0-3-1.346-3-3v-1h-2v1c0 .629.13 1.226.343 1.781-1.149.725-1.956 1.885-2.229 3.219zm1.886 6.406v-5.406c0-1.046.55-1.994 1.41-2.535.91.943 2.18 1.535 3.59 1.535h1.764c1.309 0 2.619.309 3.789.895l1.447.723v-1.731c.328.067.661.113 1 .113h1.764c1.108 0 2.212.234 3.236.657v5.749c0 3.605-2.141 6.852-5.454 8.272l-.333.143c-.737.316-1.213 1.037-1.213 1.838v2.104c-.381.763-1.147 1.237-2 1.237s-1.619-.474-2-1.236v-2.104c0-.801-.476-1.522-1.213-1.838l-.333-.142c-3.313-1.422-5.454-4.669-5.454-8.274zm-4 28.594v-3.834c0-4.947 3.333-9.311 8.106-10.612l1.406-.384c.784 1.141 2.073 1.83 3.488 1.83s2.704-.689 3.488-1.83l1.407.384c4.772 1.301 8.105 5.665 8.105 10.612v3.834c0 2.466-1.798 4.508-4.15 4.914.089-.283.15-.578.15-.89v-3.024h2v-2h-2v-7c0-1.654-1.346-3-3-3h-12c-1.654 0-3 1.346-3 3v7h-2v2h2v3.024c0 .312.061.607.15.89-2.352-.406-4.15-2.448-4.15-4.914zm-23.219-13h8.438l.501 2h-9.439zm-2.781 4h14l.002 2h-14.002zm3.708 13.165-1.528-9.165h9.639l-1.528 9.165c-.079.483-.494.835-.985.835h-4.612c-.491 0-.906-.352-.986-.835zm54.292 6.835h-58v-4h4.694 4.611 23.453c.081.007.159.024.242.024h12c.083 0 .161-.018.242-.024h12.758z"/><path d="m41 42c-1.654 0-3 1.346-3 3s1.346 3 3 3 3-1.346 3-3-1.346-3-3-3zm0 4c-.552 0-1-.448-1-1s.448-1 1-1 1 .448 1 1-.448 1-1 1z"/><circle cx="46" cy="17" r="1"/><circle cx="36" cy="17" r="1"/><path d="m40.999 27c1.615 0 3.067-.897 3.789-2.342l.105-.211-1.789-.895-.105.211c-.381.762-1.147 1.236-2 1.236s-1.618-.474-2-1.236l-.105-.211-1.789.895.105.211c.723 1.445 2.175 2.342 3.789 2.342z"/><path d="m40.446 22.895 1.105-.553c.478-.239.834-.65 1.003-1.157s.131-1.049-.108-1.527l-.447-.894v-1.764h-2v2c0 .155.036.309.105.447l.553 1.105-1.105.553z"/><path d="m14 18c4.963 0 9-4.038 9-9s-4.037-9-9-9-9 4.038-9 9 4.037 9 9 9zm-1-15.92v1.92h2v-1.92c3.059.441 5.479 2.861 5.92 5.92h-1.92v2h1.92c-.441 3.059-2.861 5.479-5.92 5.92v-1.92h-2v1.92c-3.059-.441-5.479-2.861-5.92-5.92h1.92v-2h-1.92c.441-3.059 2.861-5.479 5.92-5.92z"/><path d="m15 9.414v-3.414h-2v2.586l-1.707 1.707 1.414 1.414z"/><path d="m20 28h-5c-1.654 0-3 1.346-3 3v1h2v-1c0-.551.448-1 1-1h5c1.654 0 3-1.346 3-3s-1.346-3-3-3h-4v-1c0-1.654-1.346-3-3-3h-1v2h1c.552 0 1 .449 1 1v3h6c.552 0 1 .449 1 1s-.448 1-1 1z"/><path d="m3 30h4c.552 0 1 .449 1 1v1h2v-1c0-1.654-1.346-3-3-3h-4c-.552 0-1-.449-1-1s.448-1 1-1h7v-2h-7c-1.654 0-3 1.346-3 3s1.346 3 3 3z"/><path d="m8 20h2v2h-2z"/></g></g></svg>