<svg id="Layer_35" enable-background="new 0 0 58.002 62" height="512" viewBox="0 0 58.002 62" width="512" xmlns="http://www.w3.org/2000/svg"><g><g><g><path d="m31.001 43 2 9-3 3-3-3 2-9z" fill="#ff826e"/></g><g><path d="m32.141 40.71-1.14 2.29h-2l-1.14-2.29 2.14-1.71z" fill="#fc6e51"/></g><g><path d="m15.001 55h4v-7.74l.12-.16.92.66c.3.16.63.24.96.24.73 0 1.41-.4 1.76-1.04.25-.47.31-1.01.16-1.52-.15-.52-.49-.94-.96-1.2l-5.57-3.88.02-.03c1.56-2.07 3.79-3.63 6.4-4.36v.01l2.19 7.02 2.86-2.29 1.14 2.29-2 9 3 3 3-3-2-9 1.14-2.29 2.86 2.29 2.19-7.02v-.01c2.61.73 4.84 2.29 6.4 4.36l.41.5h.01c-.01.05-.01.11-.01.17v2h-5v2 10h7c-1.1 0-2 .9-2 2v1c0 .35.06.69.18 1h-.01-28.34-.01c.12-.31.18-.65.18-1v-1c0-1.1-.89-2-2-2z" fill="#b4dd7f"/></g><g><path d="m36.701 35.85c.16.04.33.08.49.12v.01l-2.19 7.02-2.86-2.29-2.14-1.71 3-4z" fill="#a0d468"/></g><g><path d="m23.301 35.85 3.7-.85 3 4-2.14 1.71-2.86 2.29-2.19-7.02v-.01c.16-.04.33-.08.49-.12z" fill="#a0d468"/></g><g><path d="m20.001 15h-3c-.4 0-.79.08-1.14.23v-.01c-.56-1.27-.86-2.66-.86-4.09 0-.17 0-.33.01-.5.26-5.36 4.7-9.63 10.12-9.63h9.74c2.8 0 5.33 1.14 7.17 2.97 1.72 1.72 2.82 4.07 2.95 6.66.01.17.01.33.01.5 0 1.43-.3 2.82-.86 4.09v.01c-.35-.15-.74-.23-1.14-.23h-3v-2.1c0 .69-.34 1.33-.91 1.71-1.36.91-2.96 1.39-4.6 1.39-3.36 0-6.29-2.02-7.57-4.96h-.01c-1.39 2.37-3.96 3.96-6.91 3.96z" fill="#656d78"/></g><g><path d="m55.001 27v8l-2.5.78c-.27 1.3-.66 2.55-1.14 3.76-.35-.34-.83-.54-1.36-.54h-2.76c1.13-2.43 1.76-5.14 1.76-8 0-4.17-1.34-8.03-3.63-11.17.39-.5.63-1.14.63-1.83 0-1.26-.77-2.33-1.86-2.77v-.01c.56-1.27.86-2.66.86-4.09 0-.17 0-.33-.01-.5l5.52 5.52-1.22 2.33c1.51 2.32 2.62 4.93 3.21 7.74z" fill="#fcd770"/></g><g><path d="m11.001 31c0 2.48.48 4.85 1.34 7.02v.01c-.11-.02-.22-.03-.34-.03-.65 0-1.28.2-1.82.57l-1.5 1.05c-.5-1.23-.9-2.51-1.18-3.84l-2.5-.78v-8l2.5-.78c.6-2.81 1.7-5.42 3.21-7.74l-1.21-2.33 5.51-5.52c-.01.17-.01.33-.01.5 0 1.43.3 2.82.86 4.09v.01c-.37.15-.7.37-.98.65-.54.54-.88 1.29-.88 2.12 0 .69.24 1.33.63 1.83-2.28 3.14-3.63 7-3.63 11.17z" fill="#fcd770"/></g><g><path d="m57.001 45v10h-7-2-2-7v-10c0 2.21 1.79 4 4 4h10c2.21 0 4-1.79 4-4z" fill="#cf9e76"/></g><g><path d="m57.001 43v2c0 2.21-1.79 4-4 4h-10c-2.21 0-4-1.79-4-4v-2h5 8z" fill="#d3a06c"/></g><g><path d="m22.921 45.44c.15.51.09 1.05-.16 1.52-.35.64-1.03 1.04-1.76 1.04-.33 0-.66-.08-.96-.24l-.92-.66-7.12-5.1-7.12 5.1-.92.66c-.29.16-.63.24-.96.24-.73 0-1.4-.4-1.75-1.04-.26-.47-.32-1.01-.17-1.52.15-.52.49-.94.96-1.2l6.64-4.62 1.5-1.05c.54-.37 1.17-.57 1.82-.57.12 0 .23.01.34.03.53.05 1.04.24 1.48.54l2.57 1.79 5.57 3.88c.47.26.81.68.96 1.2z" fill="#ff826e"/></g><g><path d="m19.121 47.1-.12.16v7.74h-4v-6h-6v6h-4v-7.74l-.12-.16 7.12-5.1z" fill="#e6e9ed"/></g><g><path d="m15.001 49v6h-1-2-2-1v-6z" fill="#aab2bd"/></g><g><path d="m52.001 57v1c0 1.66-1.34 3-3 3h-2c-1.31 0-2.42-.83-2.82-2-.12-.31-.18-.65-.18-1v-1c0-1.1.9-2 2-2h2 2c1.11 0 2 .9 2 2z" fill="#f0d0b4"/></g><g><path d="m16.001 57v1c0 .35-.06.69-.18 1-.4 1.17-1.51 2-2.82 2h-2c-1.66 0-3-1.34-3-3v-1c0-1.1.9-2 2-2h2 2c1.11 0 2 .9 2 2z" fill="#f0d0b4"/></g><g><path d="m46.001 18c0 .69-.24 1.33-.63 1.83-.07.1-.16.2-.25.29-.54.54-1.29.88-2.12.88h-3v-6h3c.4 0 .79.08 1.14.23 1.09.44 1.86 1.51 1.86 2.77z" fill="#f0d0b4"/></g><g><path d="m34.491 16c1.64 0 3.24-.48 4.6-1.39.57-.38.91-1.02.91-1.71v2.1 6 1.41c0 4-2.38 7.61-6.06 9.19l-.33.14c-.37.16-.61.52-.61.92v2.34l-3 4-3-4v-2.34c0-.4-.24-.76-.61-.92l-.33-.14c-3.68-1.58-6.06-5.19-6.06-9.2v-1.4-6c2.95 0 5.52-1.59 6.91-3.96h.01c1.28 2.94 4.21 4.96 7.57 4.96z" fill="#f0d0b4"/></g><g><path d="m20.001 15v6h-3c-.97 0-1.83-.46-2.37-1.17-.39-.5-.63-1.14-.63-1.83 0-.83.34-1.58.88-2.12.28-.28.61-.5.98-.65.35-.15.74-.23 1.14-.23z" fill="#f0d0b4"/></g></g><g><circle cx="35.002" cy="19" r="1"/><circle cx="25.002" cy="19" r="1"/><path d="m30.001 29c1.615 0 3.067-.897 3.789-2.342l.105-.211-1.789-.895-.105.211c-.381.763-1.147 1.236-2 1.236s-1.619-.474-2-1.236l-.105-.211-1.789.895.105.211c.721 1.445 2.174 2.342 3.789 2.342z"/><path d="m29.448 24.895 1.105-.553c.478-.239.834-.649 1.003-1.156s.131-1.05-.108-1.527l-.447-.895v-1.764h-2v2c0 .155.036.309.105.447l.553 1.105-1.105.553z"/><path d="m53.002 42v-1c0-.616-.187-1.188-.507-1.665.336-.907.632-1.83.855-2.769l2.652-.832v-9.469l-2.652-.832c-.588-2.476-1.563-4.826-2.904-7.002l1.289-2.47-5.78-5.78c-.485-5.693-5.267-10.181-11.084-10.181h-9.738c-5.818 0-10.6 4.489-11.083 10.183l-5.78 5.779 1.29 2.469c-1.342 2.176-2.317 4.526-2.905 7.002l-2.652.832v9.469l2.652.832c.216.908.502 1.798.822 2.672l-5.964 4.157c-.675.386-1.167 1.008-1.39 1.759-.226.77-.139 1.58.245 2.281.525.965 1.535 1.565 2.635 1.565.343 0 .677-.08.999-.194v7.194h3.184c-.112.314-.184.648-.184 1v1c0 2.206 1.794 4 4 4h2c1.474 0 2.75-.81 3.444-2h27.112c.694 1.19 1.97 2 3.444 2h2c2.206 0 4-1.794 4-4v-1c0-.352-.072-.686-.184-1h5.184v-14zm-8 0v-1c0-.552.448-1 1-1h4c.552 0 1 .448 1 1v1zm-28.797-2.987-1.808-1.261c-.394-.276-.835-.466-1.293-.587-.72-1.972-1.102-4.041-1.102-6.166 0-3.459.976-6.771 2.817-9.656.628.413 1.377.657 2.183.657h1.998v.404c-.001 4.407 2.616 8.376 6.666 10.112l.333.144.001 1.545-2.921.674c-2.674.617-5.081 2.075-6.874 4.134zm10.579-26.127c1.669 2.497 4.503 4.114 7.711 4.114 1.592 0 3.128-.427 4.507-1.196l.001 6.602c.001 3.605-2.141 6.853-5.455 8.273l-.331.143c-.737.315-1.213 1.037-1.213 1.837l-.002 2.009-2 2.666-2.001-2.668-.002-2.007c0-.802-.477-1.523-1.212-1.838l-.333-.143c-3.314-1.421-5.455-4.668-5.454-8.274l.001-6.471c2.244-.253 4.307-1.354 5.783-3.047zm18.218 5.114c0 1.103-.897 2-2 2h-1.999v-4h2c1.101 0 1.999.897 1.999 2zm-26.002 2h-1.999c-1.103 0-2-.897-2-2s.897-2 2-2h1.999zm7.591 16.121 2.029 2.704-3.099 2.479-1.434-4.605zm3.213 7.879h.395l1.707 7.681-1.904 1.904-1.904-1.904zm.58-2h-.764l-.505-1.01.886-.709.886.709zm1-3.176 2.029-2.703 2.505.579-1.434 4.605zm5.541-3.945-2.922-.674.002-1.546.331-.143c4.052-1.736 6.668-5.705 6.667-10.111v-.405h1.999c.806 0 1.555-.244 2.183-.656 1.841 2.885 2.817 6.197 2.817 9.656 0 2.437-.498 4.784-1.436 7h-.564c-.882 0-1.668.389-2.217.997-1.792-2.051-4.193-3.503-6.86-4.118zm11.529-15.855c1.478 2.273 2.51 4.762 3.067 7.397l.121.572 2.359.74v6.531l-2.359.74-.121.572c-.181.86-.436 1.707-.722 2.543-.256-.069-.519-.119-.797-.119h-1.266c.836-2.232 1.266-4.579 1.266-7 0-4.033-1.199-7.887-3.447-11.201.276-.543.447-1.149.447-1.799 0-1.316-.647-2.476-1.631-3.205.216-.617.371-1.249.475-1.892l3.435 3.436-1.146 2.196zm-23.321-17.024h9.738c5.035 0 9.131 4.096 9.131 9.131 0 1.003-.167 1.981-.485 2.921-.171-.022-.339-.052-.515-.052h-2v-2h-.061c-.29-1.699-1.763-3-3.544-3h-3.395v2h3.395c.886 0 1.605.72 1.605 1.605v.296c0 .353-.175.681-.469.876-1.199.8-2.596 1.223-4.038 1.223-3.756 0-6.87-2.818-7.243-6.556l-.255-2.544-1.99.2.255 2.544c.079.795.264 1.553.525 2.271-1.108 1.63-2.851 2.725-4.785 3.007v-.686c0-.998.555-1.896 1.447-2.342l-.895-1.789c-1.574.788-2.553 2.371-2.553 4.131v.764h-2c-.176 0-.344.03-.515.052-.319-.94-.485-1.919-.485-2.921.001-5.035 4.096-9.131 9.132-9.131zm-16.651 33.578-.121-.572-2.359-.74v-6.531l2.359-.74.121-.572c.558-2.637 1.59-5.125 3.068-7.397l.319-.489-1.147-2.197 3.435-3.435c.103.642.259 1.274.475 1.891-.984.729-1.631 1.889-1.631 3.206 0 .65.171 1.256.447 1.799-2.248 3.313-3.447 7.167-3.447 11.201 0 2.109.342 4.167.982 6.147-.486.118-.955.313-1.374.604l-.43.3c-.274-.814-.52-1.637-.697-2.475zm-6.359 10.9c-.127-.233-.156-.504-.081-.759.076-.257.247-.469.481-.597l8.23-5.73c.736-.512 1.763-.513 2.497.001l8.137 5.672.093.058c.235.128.406.34.481.597.075.256.046.525-.082.761-.245.452-.848.645-1.311.422l-8.567-6.132-8.566 6.132c-.46.221-1.063.029-1.312-.425zm3.879 1.039 6-4.288 6 4.295v6.476h-2v-6h-8v6h-2zm4 6.483v-4h4v4zm5 4c0 1.103-.897 2-2 2h-2c-1.103 0-2-.897-2-2v-1c0-.552.448-1 1-1h1v2h2v-2h1c.552 0 1 .448 1 1zm2 0v-1c0-.352-.072-.686-.184-1h3.184v-7.195c.322.115.656.195.999.195 1.099 0 2.108-.599 2.635-1.563.385-.705.472-1.517.244-2.284-.22-.749-.712-1.371-1.389-1.758l-4.64-3.234c1.182-1.304 2.665-2.298 4.311-2.912l2.32 7.447 3.036-2.428.43.861-2.042 9.19 4.096 4.094 4.096-4.094-2.042-9.19.43-.861 3.035 2.427 2.321-7.446c1.956.731 3.687 2.005 4.974 3.713l.187.227v.811h-5v14h5.184c-.112.314-.184.648-.184 1v1zm34-1v1c0 1.103-.897 2-2 2h-2c-1.103 0-2-.897-2-2v-1c0-.552.448-1 1-1h1v2h2v-2h1c.552 0 1 .448 1 1zm-1-3h-4-6v-5.026c.838.635 1.87 1.026 3 1.026h10c1.13 0 2.162-.391 3-1.026v5.026zm3-6h-10c-1.654 0-3-1.346-3-3v-1h16v1c0 1.654-1.346 3-3 3z"/></g></g></svg>